<svg width="173" height="58" viewBox="0 0 173 58" fill="none" xmlns="http://www.w3.org/2000/svg">
    <g clip-path="url(#clip0_182_443)">
        <path
            d="M-0.144287 28.991C-0.144287 12.9999 12.8775 0.0403442 28.9453 0.0403442C45.013 0.0403442 58.0349 13.0047 58.0349 28.991C58.0349 44.9822 45.013 57.9465 28.9453 57.9465C12.8775 57.9417 -0.144287 44.9822 -0.144287 28.991Z"
            fill="#FFCF31" />
        <circle cx="28.8379" cy="28.838" r="21.7095" fill="#331E6D" />
        <path
            d="M0.961905 28.991H1.12474C1.12474 21.3475 4.23772 14.4271 9.27116 9.41281C14.3094 4.40331 21.2585 1.3047 28.9452 1.3047C36.627 1.3047 43.581 4.40331 48.6144 9.41281C53.6479 14.4223 56.7608 21.3427 56.7608 28.991C56.7608 36.6346 53.6479 43.555 48.6144 48.5693C43.581 53.5788 36.627 56.6774 28.9452 56.6774C21.2633 56.6774 14.3094 53.5788 9.27595 48.5693C4.23772 43.555 1.12474 36.6346 1.12474 28.991H0.961905H0.799072C0.799072 44.4649 13.3994 57.003 28.9452 57.003C44.4861 57.003 57.0913 44.4601 57.0913 28.991C57.0913 13.5171 44.4909 0.979034 28.9452 0.979034C13.3994 0.979034 0.799072 13.5171 0.799072 28.991H0.961905Z"
            fill="#331E6D" />
        <path
            d="M38.5445 17.7463L38.5019 17.7143L37.7662 17.2452C37.7556 17.2346 37.7343 17.2239 37.7129 17.2133C37.7023 17.2133 37.7023 17.2026 37.6916 17.2026C35.6233 16.0405 33.0859 15.6354 30.6978 15.9339C30.3246 15.9765 29.9408 16.0405 29.5676 15.9979C29.0879 15.9339 28.6508 15.6994 28.2137 15.4968C25.4204 14.2814 22.0087 14.9744 19.5886 16.8188C17.1578 18.6739 15.6439 21.5205 14.9403 24.495C14.791 25.1027 14.695 25.8063 15.0788 26.3074C15.2814 26.0089 15.3134 25.6357 15.3454 25.2839C15.6652 21.8723 17.6269 18.6525 20.5055 16.7975C23.0322 15.1663 26.0494 14.8464 28.7361 16.2751C28.0431 16.3923 27.3607 16.5736 26.6997 16.7975C26.0387 17.0214 25.4097 17.2879 24.802 17.5971C24.1943 17.9063 23.6293 18.2581 23.0855 18.6419C22.5525 19.0257 22.0514 19.4522 21.5929 19.9106C21.1345 20.3584 20.7187 20.8488 20.3456 21.3605C19.9724 21.8723 19.6632 22.4054 19.386 22.9597C19.1088 23.5141 18.9063 24.0792 18.757 24.6656C18.5971 25.2519 18.5118 25.8383 18.4905 26.4354C18.4905 26.9684 18.5758 27.5015 18.757 28.0346C18.9276 28.5676 19.1941 29.0474 19.5566 29.4845C19.9191 29.911 20.3775 30.2734 20.9426 30.5506C21.5077 30.8278 22.1687 30.9664 22.9256 30.9664C25.0152 30.9664 27.0302 29.9216 28.4695 28.461C29.6636 27.2456 30.5165 25.7104 31.0496 24.0792C31.4121 22.9811 31.636 21.819 31.572 20.6569C31.4974 19.1323 30.8683 17.8743 30.0367 16.6375C30.2287 16.6162 33.6936 15.6247 37.4251 17.725C37.7023 17.8849 37.9795 18.0555 38.2567 18.2368L38.2673 18.2474H38.278C38.3633 18.3114 38.4592 18.3754 38.5445 18.4393L38.8537 17.9702C38.7471 17.9063 38.6511 17.821 38.5445 17.7463ZM30.1114 17.7143C30.3139 18.0662 30.4952 18.4287 30.6551 18.8125C30.815 19.1963 30.9323 19.5694 31.0283 19.9532C31.1242 20.337 31.1669 20.6889 31.1669 21.0194C31.1669 21.4885 31.1242 21.9789 31.0496 22.48C30.9643 22.9811 30.847 23.4928 30.6764 24.0046C30.5165 24.5163 30.3033 25.0281 30.0581 25.5291C29.8129 26.0302 29.525 26.5206 29.1945 27.0004C28.864 27.4695 28.4908 27.9066 28.0751 28.3118C27.6486 28.7062 27.1902 29.058 26.6891 29.3566C26.188 29.6551 25.6443 29.9003 25.0686 30.1029C24.4928 30.2948 23.8638 30.4227 23.1921 30.4867C22.7444 30.508 22.3286 30.444 21.9768 30.2841C21.6143 30.1242 21.3051 29.9216 21.0386 29.6657C20.772 29.4099 20.5695 29.1114 20.4202 28.7702C20.2816 28.429 20.1963 28.0879 20.175 27.736C20.175 27.2883 20.2283 26.7978 20.3242 26.2861C20.4309 25.7743 20.5801 25.2519 20.7933 24.7189C20.9959 24.1858 21.2624 23.6421 21.5823 23.0983C21.9021 22.5546 22.2646 22.0215 22.6591 21.4991C23.0642 20.9767 23.512 20.4756 24.0024 20.0065C24.4928 19.5268 25.0259 19.0897 25.6016 18.6845C26.1773 18.2687 26.785 17.9063 27.446 17.5758C28.107 17.2452 28.8 16.9787 29.5463 16.7761C29.7063 17.0427 29.8982 17.3625 30.1114 17.7143Z"
            fill="#FFCF31" />
        <path
            d="M42.1374 25.0175C42.1907 27.1711 41.6256 29.3247 40.5595 31.2011C37.9688 35.7641 32.5848 38.3122 27.3394 38.3335H27.1581C26.9662 38.3335 26.7743 38.3335 26.5931 38.3229C25.2071 38.2802 23.8211 38.1523 22.4458 38.2376C20.8573 38.3335 19.2261 38.7173 17.7122 38.2269C17.1791 38.0563 16.5927 37.5233 16.8806 37.0435C17.0405 36.7557 17.4243 36.6917 17.7548 36.6704C18.8423 36.5957 19.9191 36.7237 20.9852 36.9262C21.4223 37.0115 21.8701 37.0862 22.3072 37.1714C22.755 37.2567 26.0067 37.6619 26.5185 37.7258C26.6464 37.7365 26.7743 37.7578 26.9023 37.7685C27.1048 37.7898 27.3074 37.8005 27.51 37.8111C30.7084 37.9604 33.9921 36.9902 36.5295 35.0392C37.2225 34.5061 37.8622 33.8984 38.4272 33.2481C39.9411 31.5103 41.0073 29.378 41.455 27.1071C41.7429 25.6785 41.7855 24.1752 41.3697 22.7679C41.0286 21.5739 40.4315 20.0813 39.4933 19.2284C39.4294 19.1751 39.3761 19.1217 39.3121 19.0684C39.0669 18.8552 38.811 18.6526 38.5551 18.4714L38.8643 18.0023C39.1202 18.1942 39.3547 18.4074 39.5786 18.642C39.7705 18.8339 39.9518 19.0365 40.1224 19.2497C41.3164 20.721 41.9668 22.576 42.116 24.4631C42.1267 24.6337 42.1374 24.8256 42.1374 25.0175Z"
            fill="#FFCF31" />
        <path
            d="M40.2819 14.9959C39.6742 14.676 38.9279 14.9106 38.6081 15.5183L37.7125 17.2134C37.7232 17.2241 37.7445 17.2348 37.7658 17.2454L38.5014 17.7145L38.5334 17.7359L39.4183 15.9341C39.4823 15.8061 39.6102 15.7528 39.7062 15.7528C39.7595 15.7528 39.8128 15.7635 39.8554 15.7848C40.0154 15.8701 40.0793 16.0727 39.994 16.2326C39.994 16.2433 39.9834 16.2433 39.9834 16.2539L38.8533 17.9917L38.5441 18.4608L37.0835 20.6997L38.2669 18.2689L38.2562 18.2583C37.979 18.0664 37.7018 17.8958 37.4246 17.7465L26.8805 37.7686L26.582 38.3443L23.6501 43.8989L27.1471 38.3443L27.4882 37.8006L39.301 19.0579L39.5676 18.6314L40.7403 16.755C40.7617 16.7337 40.7723 16.7017 40.7936 16.6697C41.1135 16.062 40.8896 15.3157 40.2819 14.9959Z"
            fill="white" />
    </g>
    <path
        d="M74.303 28.871C73.533 28.871 72.796 28.761 72.092 28.541C71.41 28.343 70.816 27.903 70.31 27.221C70.376 26.693 70.53 25.923 70.772 24.911C71.036 23.899 71.355 22.755 71.729 21.479C72.103 20.181 72.499 18.85 72.917 17.486C73.335 16.122 73.742 14.824 74.138 13.592C74.556 12.338 74.919 11.249 75.227 10.325C75.557 9.379 75.799 8.697 75.953 8.279C76.019 8.103 76.129 7.839 76.283 7.487C76.437 7.135 76.635 6.772 76.877 6.398C77.119 6.024 77.394 5.716 77.702 5.474C78.032 5.21 78.384 5.078 78.758 5.078C79.132 5.078 79.55 5.232 80.012 5.54C79.33 7.08 78.637 8.796 77.933 10.688C77.251 12.558 76.591 14.494 75.953 16.496C75.337 18.476 74.765 20.412 74.237 22.304C73.731 24.174 73.313 25.89 72.983 27.452C73.159 27.518 73.401 27.562 73.709 27.584C74.039 27.628 74.347 27.65 74.633 27.65C76.063 27.65 77.427 27.298 78.725 26.594C80.023 25.912 81.211 24.999 82.289 23.855C83.389 22.689 84.346 21.391 85.16 19.961C85.974 18.509 86.601 17.024 87.041 15.506C87.481 13.988 87.701 12.536 87.701 11.15C87.701 9.368 87.393 7.927 86.777 6.827C86.183 5.705 85.358 4.891 84.302 4.385C83.246 3.857 82.036 3.593 80.672 3.593C79.242 3.593 77.955 3.857 76.811 4.385C75.667 4.891 74.765 5.595 74.105 6.497C73.467 7.377 73.148 8.389 73.148 9.533C73.148 9.775 73.17 10.039 73.214 10.325C73.258 10.589 73.335 10.853 73.445 11.117C72.499 11.117 71.817 10.919 71.399 10.523C71.003 10.105 70.805 9.599 70.805 9.005C70.805 8.235 71.08 7.454 71.63 6.662C72.202 5.87 72.983 5.144 73.973 4.484C74.985 3.802 76.151 3.263 77.471 2.867C78.791 2.449 80.221 2.24 81.761 2.24C83.917 2.24 85.644 2.658 86.942 3.494C88.24 4.308 89.175 5.419 89.747 6.827C90.341 8.213 90.638 9.764 90.638 11.48C90.638 13.372 90.33 15.187 89.714 16.925C89.12 18.641 88.284 20.225 87.206 21.677C86.15 23.129 84.918 24.394 83.51 25.472C82.124 26.55 80.639 27.386 79.055 27.98C77.493 28.574 75.909 28.871 74.303 28.871ZM92.1733 27.254C91.6893 27.254 91.3373 26.88 91.1173 26.132C90.9193 25.384 90.8203 24.515 90.8203 23.525C90.8203 22.513 90.9853 21.292 91.3153 19.862C91.6673 18.432 92.1293 16.925 92.7013 15.341C93.2953 13.757 93.9443 12.206 94.6483 10.688C95.3743 9.17 96.1113 7.795 96.8593 6.563C97.6293 5.309 98.3553 4.308 99.0373 3.56C99.7413 2.812 100.357 2.438 100.885 2.438C101.347 2.438 101.699 2.691 101.941 3.197C102.183 3.703 102.304 4.231 102.304 4.781C102.304 5.375 102.161 6.112 101.875 6.992C101.611 7.85 101.237 8.774 100.753 9.764C100.269 10.754 99.6973 11.733 99.0373 12.701C98.3993 13.647 97.6953 14.516 96.9253 15.308C96.1773 16.1 95.3963 16.738 94.5823 17.222C94.2963 17.97 94.0653 18.674 93.8893 19.334C93.7353 19.972 93.6253 20.577 93.5593 21.149C93.4933 21.721 93.4603 22.282 93.4603 22.832C93.4603 22.942 93.4603 23.063 93.4603 23.195C93.4823 23.305 93.4933 23.415 93.4933 23.525C93.5813 23.393 93.7243 23.052 93.9223 22.502C94.1203 21.952 94.3843 21.314 94.7143 20.588C95.0663 19.84 95.4953 19.114 96.0013 18.41C96.5073 17.684 97.1013 17.09 97.7833 16.628C98.4653 16.144 99.2463 15.902 100.126 15.902C100.874 15.902 101.457 16.078 101.875 16.43C102.293 16.76 102.59 17.178 102.766 17.684C102.942 18.168 103.03 18.663 103.03 19.169C103.03 19.873 102.909 20.533 102.667 21.149C102.447 21.765 102.216 22.348 101.974 22.898C101.754 23.426 101.644 23.932 101.644 24.416C101.644 24.812 101.732 25.087 101.908 25.241C102.084 25.395 102.293 25.472 102.535 25.472C103.019 25.472 103.58 25.23 104.218 24.746C104.878 24.262 105.527 23.624 106.165 22.832C106.825 22.018 107.386 21.127 107.848 20.159L108.376 20.72C107.87 21.82 107.276 22.832 106.594 23.756C105.912 24.68 105.164 25.417 104.35 25.967C103.536 26.517 102.656 26.792 101.71 26.792C100.874 26.792 100.236 26.572 99.7963 26.132C99.3563 25.692 99.1363 25.142 99.1363 24.482C99.1363 24.02 99.2133 23.514 99.3673 22.964C99.5433 22.392 99.7083 21.82 99.8623 21.248C100.016 20.676 100.093 20.159 100.093 19.697C100.093 19.169 99.9723 18.806 99.7303 18.608C99.5103 18.41 99.2353 18.311 98.9053 18.311C98.3553 18.311 97.8603 18.531 97.4203 18.971C96.9803 19.389 96.5843 19.939 96.2323 20.621C95.8803 21.303 95.5503 22.029 95.2423 22.799C94.9343 23.547 94.6263 24.262 94.3183 24.944C94.0103 25.626 93.6803 26.176 93.3283 26.594C92.9983 27.034 92.6133 27.254 92.1733 27.254ZM95.2753 15.11C95.8473 14.604 96.3973 13.999 96.9253 13.295C97.4533 12.591 97.9373 11.865 98.3773 11.117C98.8393 10.347 99.2353 9.61 99.5653 8.906C99.9173 8.18 100.192 7.531 100.39 6.959C100.588 6.387 100.698 5.947 100.72 5.639C100.72 5.617 100.72 5.606 100.72 5.606C100.72 5.584 100.72 5.562 100.72 5.54C100.588 5.54 100.302 5.815 99.8623 6.365C99.4443 6.893 98.9493 7.619 98.3773 8.543C97.8273 9.445 97.2663 10.468 96.6943 11.612C96.1443 12.756 95.6713 13.922 95.2753 15.11ZM108.81 27.551C108.084 27.551 107.457 27.309 106.929 26.825C106.379 26.341 106.104 25.615 106.104 24.647C106.104 23.877 106.28 23.041 106.632 22.139C106.984 21.237 107.468 20.346 108.084 19.466C108.7 18.586 109.404 17.794 110.196 17.09C110.988 16.364 111.835 15.781 112.737 15.341C113.639 14.901 114.541 14.681 115.443 14.681C116.389 14.681 117.192 14.923 117.852 15.407C118.512 15.891 118.842 16.529 118.842 17.321C118.842 17.915 118.633 18.344 118.215 18.608C117.797 18.872 117.302 18.949 116.73 18.839C116.774 18.641 116.807 18.443 116.829 18.245C116.873 18.047 116.895 17.838 116.895 17.618C116.895 17.178 116.807 16.782 116.631 16.43C116.455 16.078 116.081 15.902 115.509 15.902C114.893 15.902 114.266 16.111 113.628 16.529C112.99 16.947 112.374 17.497 111.78 18.179C111.208 18.839 110.691 19.576 110.229 20.39C109.767 21.182 109.404 21.963 109.14 22.733C108.876 23.503 108.744 24.196 108.744 24.812C108.744 25.516 108.997 25.868 109.503 25.868C110.009 25.868 110.57 25.626 111.186 25.142C111.802 24.636 112.418 24.009 113.034 23.261C113.672 22.513 114.277 21.754 114.849 20.984C115.421 20.192 115.916 19.521 116.334 18.971C116.4 18.861 116.488 18.806 116.598 18.806C116.686 18.828 116.851 18.883 117.093 18.971C117.357 19.037 117.599 19.147 117.819 19.301C118.039 19.455 118.149 19.653 118.149 19.895C118.149 20.115 118.05 20.401 117.852 20.753C117.676 21.083 117.456 21.457 117.192 21.875C116.95 22.271 116.73 22.678 116.532 23.096C116.356 23.492 116.268 23.877 116.268 24.251C116.268 24.537 116.345 24.812 116.499 25.076C116.653 25.318 116.906 25.439 117.258 25.439C117.786 25.439 118.523 25.054 119.469 24.284C120.437 23.492 121.416 22.161 122.406 20.291L123.033 20.918C122.505 22.106 121.867 23.162 121.119 24.086C120.393 24.988 119.623 25.692 118.809 26.198C117.995 26.726 117.17 26.99 116.334 26.99C115.432 26.99 114.761 26.704 114.321 26.132C113.881 25.56 113.639 24.944 113.595 24.284C113.595 24.24 113.595 24.207 113.595 24.185C113.595 24.163 113.595 24.141 113.595 24.119C112.715 25.175 111.901 26.011 111.153 26.627C110.427 27.243 109.646 27.551 108.81 27.551ZM123.473 27.551C122.747 27.551 122.12 27.309 121.592 26.825C121.042 26.341 120.767 25.615 120.767 24.647C120.767 23.877 120.943 23.041 121.295 22.139C121.647 21.237 122.131 20.346 122.747 19.466C123.363 18.586 124.067 17.794 124.859 17.09C125.651 16.364 126.498 15.781 127.4 15.341C128.302 14.901 129.204 14.681 130.106 14.681C131.052 14.681 131.855 14.923 132.515 15.407C133.175 15.891 133.505 16.529 133.505 17.321C133.505 17.915 133.296 18.344 132.878 18.608C132.46 18.872 131.965 18.949 131.393 18.839C131.437 18.641 131.47 18.443 131.492 18.245C131.536 18.047 131.558 17.838 131.558 17.618C131.558 17.178 131.47 16.782 131.294 16.43C131.118 16.078 130.744 15.902 130.172 15.902C129.556 15.902 128.929 16.111 128.291 16.529C127.653 16.947 127.037 17.497 126.443 18.179C125.871 18.839 125.354 19.576 124.892 20.39C124.43 21.182 124.067 21.963 123.803 22.733C123.539 23.503 123.407 24.196 123.407 24.812C123.407 25.516 123.66 25.868 124.166 25.868C124.672 25.868 125.233 25.626 125.849 25.142C126.465 24.636 127.081 24.009 127.697 23.261C128.335 22.513 128.94 21.754 129.512 20.984C130.084 20.192 130.579 19.521 130.997 18.971C131.063 18.861 131.151 18.806 131.261 18.806C131.349 18.828 131.514 18.883 131.756 18.971C132.02 19.037 132.262 19.147 132.482 19.301C132.702 19.455 132.812 19.653 132.812 19.895C132.812 20.115 132.713 20.401 132.515 20.753C132.339 21.083 132.119 21.457 131.855 21.875C131.613 22.271 131.393 22.678 131.195 23.096C131.019 23.492 130.931 23.877 130.931 24.251C130.931 24.537 131.008 24.812 131.162 25.076C131.316 25.318 131.569 25.439 131.921 25.439C132.449 25.439 133.186 25.054 134.132 24.284C135.1 23.492 136.079 22.161 137.069 20.291L137.696 20.918C137.168 22.106 136.53 23.162 135.782 24.086C135.056 24.988 134.286 25.692 133.472 26.198C132.658 26.726 131.833 26.99 130.997 26.99C130.095 26.99 129.424 26.704 128.984 26.132C128.544 25.56 128.302 24.944 128.258 24.284C128.258 24.24 128.258 24.207 128.258 24.185C128.258 24.163 128.258 24.141 128.258 24.119C127.378 25.175 126.564 26.011 125.816 26.627C125.09 27.243 124.309 27.551 123.473 27.551ZM137.938 35.24C137.388 35.24 136.871 35.075 136.387 34.745C135.925 34.415 135.694 33.876 135.694 33.128C135.694 32.424 135.892 31.786 136.288 31.214C136.706 30.664 137.245 30.147 137.905 29.663C138.587 29.201 139.313 28.772 140.083 28.376C140.853 27.98 141.601 27.606 142.327 27.254C142.569 26.66 142.8 26.022 143.02 25.34C143.24 24.658 143.449 23.921 143.647 23.129C142.877 24.097 142.063 24.9 141.205 25.538C140.369 26.176 139.511 26.495 138.631 26.495C137.751 26.495 137.047 26.187 136.519 25.571C136.013 24.955 135.76 24.141 135.76 23.129C135.76 21.963 136.046 20.874 136.618 19.862C137.212 18.828 137.971 17.915 138.895 17.123C139.819 16.309 140.809 15.682 141.865 15.242C142.921 14.78 143.933 14.549 144.901 14.549C145.605 14.549 146.133 14.681 146.485 14.945C146.837 15.187 147.013 15.473 147.013 15.803C147.013 16.067 146.936 16.276 146.782 16.43C146.628 16.584 146.529 16.672 146.485 16.694C146.265 16.452 146.034 16.298 145.792 16.232C145.572 16.144 145.308 16.1 145 16.1C144.142 16.1 143.317 16.342 142.525 16.826C141.733 17.31 141.029 17.937 140.413 18.707C139.819 19.455 139.346 20.236 138.994 21.05C138.642 21.864 138.466 22.601 138.466 23.261C138.466 23.701 138.565 24.042 138.763 24.284C138.961 24.504 139.203 24.614 139.489 24.614C140.105 24.614 140.853 24.218 141.733 23.426C142.613 22.612 143.46 21.633 144.274 20.489C144.318 20.313 144.351 20.159 144.373 20.027C144.417 19.873 144.45 19.73 144.472 19.598C144.692 18.718 144.956 18.069 145.264 17.651C145.572 17.233 146.001 17.024 146.551 17.024C146.661 17.024 146.793 17.035 146.947 17.057C147.123 17.079 147.31 17.112 147.508 17.156C147.508 17.552 147.398 18.201 147.178 19.103C146.958 20.005 146.661 21.061 146.287 22.271C145.913 23.459 145.495 24.68 145.033 25.934C145.715 25.648 146.408 25.252 147.112 24.746C147.816 24.218 148.465 23.591 149.059 22.865C149.653 22.117 150.104 21.292 150.412 20.39L151.006 20.984C150.654 21.996 150.104 22.92 149.356 23.756C148.63 24.592 147.838 25.318 146.98 25.934C146.122 26.528 145.33 26.99 144.604 27.32C144.01 28.772 143.361 30.092 142.657 31.28C141.975 32.49 141.238 33.447 140.446 34.151C139.676 34.877 138.84 35.24 137.938 35.24ZM137.806 33.722C138.202 33.722 138.741 33.348 139.423 32.6C140.127 31.852 140.886 30.587 141.7 28.805C140.886 29.201 140.138 29.608 139.456 30.026C138.774 30.444 138.224 30.884 137.806 31.346C137.388 31.808 137.179 32.292 137.179 32.798C137.179 33.084 137.234 33.304 137.344 33.458C137.476 33.634 137.63 33.722 137.806 33.722ZM151.446 27.551C150.72 27.551 150.093 27.309 149.565 26.825C149.015 26.341 148.74 25.615 148.74 24.647C148.74 23.877 148.916 23.041 149.268 22.139C149.62 21.237 150.104 20.346 150.72 19.466C151.336 18.586 152.04 17.794 152.832 17.09C153.624 16.364 154.471 15.781 155.373 15.341C156.275 14.901 157.177 14.681 158.079 14.681C159.025 14.681 159.828 14.923 160.488 15.407C161.148 15.891 161.478 16.529 161.478 17.321C161.478 17.915 161.269 18.344 160.851 18.608C160.433 18.872 159.938 18.949 159.366 18.839C159.41 18.641 159.443 18.443 159.465 18.245C159.509 18.047 159.531 17.838 159.531 17.618C159.531 17.178 159.443 16.782 159.267 16.43C159.091 16.078 158.717 15.902 158.145 15.902C157.529 15.902 156.902 16.111 156.264 16.529C155.626 16.947 155.01 17.497 154.416 18.179C153.844 18.839 153.327 19.576 152.865 20.39C152.403 21.182 152.04 21.963 151.776 22.733C151.512 23.503 151.38 24.196 151.38 24.812C151.38 25.516 151.633 25.868 152.139 25.868C152.645 25.868 153.206 25.626 153.822 25.142C154.438 24.636 155.054 24.009 155.67 23.261C156.308 22.513 156.913 21.754 157.485 20.984C158.057 20.192 158.552 19.521 158.97 18.971C159.036 18.861 159.124 18.806 159.234 18.806C159.322 18.828 159.487 18.883 159.729 18.971C159.993 19.037 160.235 19.147 160.455 19.301C160.675 19.455 160.785 19.653 160.785 19.895C160.785 20.115 160.686 20.401 160.488 20.753C160.312 21.083 160.092 21.457 159.828 21.875C159.586 22.271 159.366 22.678 159.168 23.096C158.992 23.492 158.904 23.877 158.904 24.251C158.904 24.537 158.981 24.812 159.135 25.076C159.289 25.318 159.542 25.439 159.894 25.439C160.422 25.439 161.159 25.054 162.105 24.284C163.073 23.492 164.052 22.161 165.042 20.291L165.669 20.918C165.141 22.106 164.503 23.162 163.755 24.086C163.029 24.988 162.259 25.692 161.445 26.198C160.631 26.726 159.806 26.99 158.97 26.99C158.068 26.99 157.397 26.704 156.957 26.132C156.517 25.56 156.275 24.944 156.231 24.284C156.231 24.24 156.231 24.207 156.231 24.185C156.231 24.163 156.231 24.141 156.231 24.119C155.351 25.175 154.537 26.011 153.789 26.627C153.063 27.243 152.282 27.551 151.446 27.551ZM68.594 46.15C68.594 45.3873 68.7517 44.709 69.067 44.115C69.3897 43.5137 69.8297 43.0443 70.387 42.707C70.9517 42.3697 71.5823 42.201 72.279 42.201C73.159 42.201 73.8997 42.4063 74.501 42.817C75.1023 43.2277 75.5423 43.8033 75.821 44.544H75.249C75.029 43.9573 74.6623 43.4953 74.149 43.158C73.643 42.8133 73.0197 42.641 72.279 42.641C71.685 42.641 71.146 42.784 70.662 43.07C70.178 43.3487 69.7967 43.7557 69.518 44.291C69.2393 44.819 69.1 45.4387 69.1 46.15C69.1 46.854 69.2393 47.47 69.518 47.998C69.7967 48.5187 70.178 48.922 70.662 49.208C71.146 49.494 71.685 49.637 72.279 49.637C73.0197 49.637 73.643 49.4683 74.149 49.131C74.6623 48.7863 75.029 48.3207 75.249 47.734H75.821C75.5423 48.4747 75.1023 49.0503 74.501 49.461C73.8997 49.8717 73.159 50.077 72.279 50.077C71.5823 50.077 70.9517 49.912 70.387 49.582C69.8297 49.2447 69.3897 48.779 69.067 48.185C68.7517 47.5837 68.594 46.9053 68.594 46.15ZM79.9958 50.088C79.4385 50.088 78.9362 49.9633 78.4888 49.714C78.0415 49.4647 77.6895 49.109 77.4328 48.647C77.1835 48.1777 77.0588 47.6313 77.0588 47.008C77.0588 46.392 77.1872 45.853 77.4438 45.391C77.7005 44.9217 78.0525 44.566 78.4998 44.324C78.9545 44.0747 79.4605 43.95 80.0178 43.95C80.5752 43.95 81.0775 44.0747 81.5248 44.324C81.9722 44.566 82.3205 44.918 82.5698 45.38C82.8265 45.842 82.9548 46.3847 82.9548 47.008C82.9548 47.6313 82.8265 48.1777 82.5698 48.647C82.3132 49.109 81.9575 49.4647 81.5028 49.714C81.0555 49.9633 80.5532 50.088 79.9958 50.088ZM79.9958 49.648C80.4285 49.648 80.8318 49.5527 81.2058 49.362C81.5872 49.164 81.8915 48.867 82.1188 48.471C82.3462 48.075 82.4598 47.5873 82.4598 47.008C82.4598 46.436 82.3462 45.952 82.1188 45.556C81.8915 45.16 81.5908 44.8667 81.2168 44.676C80.8428 44.478 80.4395 44.379 80.0068 44.379C79.5742 44.379 79.1708 44.478 78.7968 44.676C78.4302 44.8667 78.1332 45.16 77.9058 45.556C77.6785 45.952 77.5648 46.436 77.5648 47.008C77.5648 47.5873 77.6748 48.075 77.8948 48.471C78.1222 48.867 78.4192 49.164 78.7858 49.362C79.1598 49.5527 79.5632 49.648 79.9958 49.648ZM87.1517 43.906C87.863 43.906 88.4424 44.126 88.8897 44.566C89.337 44.9987 89.5607 45.644 89.5607 46.502V50H89.0767V46.535C89.0767 45.8237 88.897 45.281 88.5377 44.907C88.1784 44.5257 87.6907 44.335 87.0747 44.335C86.4294 44.335 85.9124 44.5403 85.5237 44.951C85.1424 45.3617 84.9517 45.9703 84.9517 46.777V50H84.4567V44.027H84.9517V45.292C85.1204 44.8447 85.399 44.5037 85.7877 44.269C86.1837 44.027 86.6384 43.906 87.1517 43.906ZM94.0052 43.906C94.7165 43.906 95.2959 44.126 95.7432 44.566C96.1905 44.9987 96.4142 45.644 96.4142 46.502V50H95.9302V46.535C95.9302 45.8237 95.7505 45.281 95.3912 44.907C95.0319 44.5257 94.5442 44.335 93.9282 44.335C93.2829 44.335 92.7659 44.5403 92.3772 44.951C91.9959 45.3617 91.8052 45.9703 91.8052 46.777V50H91.3102V44.027H91.8052V45.292C91.9739 44.8447 92.2525 44.5037 92.6412 44.269C93.0372 44.027 93.4919 43.906 94.0052 43.906ZM103.543 46.612C103.543 46.876 103.535 47.074 103.521 47.206H98.3617C98.3764 47.7413 98.4937 48.1923 98.7137 48.559C98.9337 48.9257 99.2234 49.2007 99.5827 49.384C99.9421 49.5673 100.334 49.659 100.76 49.659C101.346 49.659 101.838 49.516 102.234 49.23C102.63 48.9367 102.879 48.5407 102.982 48.042H103.499C103.381 48.6507 103.081 49.1457 102.597 49.527C102.113 49.901 101.5 50.088 100.76 50.088C100.202 50.088 99.7037 49.9633 99.2637 49.714C98.8237 49.4647 98.4791 49.109 98.2297 48.647C97.9804 48.1777 97.8557 47.6313 97.8557 47.008C97.8557 46.3847 97.9767 45.842 98.2187 45.38C98.4681 44.918 98.8127 44.566 99.2527 44.324C99.6927 44.0747 100.195 43.95 100.76 43.95C101.332 43.95 101.827 44.0747 102.245 44.324C102.67 44.566 102.993 44.8923 103.213 45.303C103.433 45.7063 103.543 46.1427 103.543 46.612ZM103.048 46.799C103.07 46.271 102.974 45.8237 102.762 45.457C102.556 45.0903 102.274 44.819 101.915 44.643C101.555 44.4597 101.167 44.368 100.749 44.368C100.331 44.368 99.9421 44.4597 99.5827 44.643C99.2307 44.819 98.9411 45.0903 98.7137 45.457C98.4937 45.8237 98.3764 46.271 98.3617 46.799H103.048ZM104.731 47.008C104.731 46.3847 104.852 45.842 105.094 45.38C105.343 44.918 105.684 44.566 106.117 44.324C106.557 44.0747 107.059 43.95 107.624 43.95C108.372 43.95 108.984 44.137 109.461 44.511C109.945 44.885 110.245 45.3873 110.363 46.018H109.846C109.75 45.5047 109.501 45.1013 109.098 44.808C108.702 44.5147 108.21 44.368 107.624 44.368C107.184 44.368 106.784 44.467 106.425 44.665C106.065 44.8557 105.776 45.1527 105.556 45.556C105.343 45.952 105.237 46.436 105.237 47.008C105.237 47.5873 105.343 48.075 105.556 48.471C105.776 48.867 106.065 49.164 106.425 49.362C106.784 49.56 107.184 49.659 107.624 49.659C108.21 49.659 108.702 49.5123 109.098 49.219C109.501 48.9257 109.75 48.5223 109.846 48.009H110.363C110.245 48.6323 109.945 49.1347 109.461 49.516C108.977 49.8973 108.364 50.088 107.624 50.088C107.059 50.088 106.557 49.9633 106.117 49.714C105.684 49.4647 105.343 49.109 105.094 48.647C104.852 48.1777 104.731 47.6313 104.731 47.008ZM112.608 44.456V48.405C112.608 48.845 112.688 49.1493 112.85 49.318C113.011 49.4793 113.297 49.56 113.708 49.56H114.379V50H113.631C113.11 50 112.725 49.879 112.476 49.637C112.234 49.3877 112.113 48.977 112.113 48.405V44.456H111.211V44.027H112.113V42.509H112.608V44.027H114.379V44.456H112.608ZM115.937 42.696C115.82 42.696 115.721 42.6593 115.64 42.586C115.56 42.5053 115.519 42.399 115.519 42.267C115.519 42.1423 115.56 42.0397 115.64 41.959C115.721 41.8783 115.82 41.838 115.937 41.838C116.055 41.838 116.154 41.8783 116.234 41.959C116.315 42.0397 116.355 42.1423 116.355 42.267C116.355 42.399 116.315 42.5053 116.234 42.586C116.154 42.6593 116.055 42.696 115.937 42.696ZM116.179 44.027V50H115.684V44.027H116.179ZM120.689 43.906C121.4 43.906 121.979 44.126 122.427 44.566C122.874 44.9987 123.098 45.644 123.098 46.502V50H122.614V46.535C122.614 45.8237 122.434 45.281 122.075 44.907C121.715 44.5257 121.228 44.335 120.612 44.335C119.966 44.335 119.449 44.5403 119.061 44.951C118.679 45.3617 118.489 45.9703 118.489 46.777V50H117.994V44.027H118.489V45.292C118.657 44.8447 118.936 44.5037 119.325 44.269C119.721 44.027 120.175 43.906 120.689 43.906ZM127.421 43.95C128.052 43.95 128.587 44.104 129.027 44.412C129.467 44.7127 129.775 45.1013 129.951 45.578V44.027H130.446V50.187C130.446 50.737 130.325 51.2173 130.083 51.628C129.841 52.046 129.515 52.365 129.104 52.585C128.694 52.8123 128.235 52.926 127.729 52.926C126.981 52.926 126.362 52.7463 125.87 52.387C125.379 52.0277 125.056 51.5437 124.902 50.935H125.397C125.544 51.4117 125.819 51.7893 126.222 52.068C126.626 52.354 127.128 52.497 127.729 52.497C128.147 52.497 128.525 52.4017 128.862 52.211C129.2 52.0277 129.464 51.76 129.654 51.408C129.852 51.0633 129.951 50.6563 129.951 50.187V48.438C129.775 48.9147 129.464 49.3107 129.016 49.626C128.576 49.934 128.045 50.088 127.421 50.088C126.864 50.088 126.365 49.9633 125.925 49.714C125.493 49.4573 125.152 49.098 124.902 48.636C124.66 48.1667 124.539 47.624 124.539 47.008C124.539 46.392 124.66 45.853 124.902 45.391C125.152 44.929 125.493 44.5733 125.925 44.324C126.365 44.0747 126.864 43.95 127.421 43.95ZM129.951 47.008C129.951 46.4873 129.841 46.029 129.621 45.633C129.409 45.2297 129.115 44.9217 128.741 44.709C128.367 44.489 127.949 44.379 127.487 44.379C127.003 44.379 126.578 44.4853 126.211 44.698C125.845 44.9033 125.559 45.204 125.353 45.6C125.148 45.996 125.045 46.4653 125.045 47.008C125.045 47.5507 125.148 48.02 125.353 48.416C125.559 48.812 125.845 49.1163 126.211 49.329C126.585 49.5417 127.011 49.648 127.487 49.648C127.949 49.648 128.367 49.5417 128.741 49.329C129.123 49.109 129.42 48.801 129.632 48.405C129.845 48.0017 129.951 47.536 129.951 47.008ZM137.52 42.278C138.826 42.278 139.83 42.619 140.534 43.301C141.246 43.983 141.601 44.9327 141.601 46.15C141.601 47.3673 141.246 48.3133 140.534 48.988C139.83 49.6627 138.826 50 137.52 50H135.353V42.278H137.52ZM137.52 49.582C138.686 49.582 139.574 49.2813 140.182 48.68C140.791 48.0713 141.095 47.228 141.095 46.15C141.095 45.0647 140.791 44.2177 140.182 43.609C139.574 43.0003 138.686 42.696 137.52 42.696H135.848V49.582H137.52ZM148.477 46.612C148.477 46.876 148.47 47.074 148.455 47.206H143.296C143.311 47.7413 143.428 48.1923 143.648 48.559C143.868 48.9257 144.158 49.2007 144.517 49.384C144.877 49.5673 145.269 49.659 145.694 49.659C146.281 49.659 146.772 49.516 147.168 49.23C147.564 48.9367 147.814 48.5407 147.916 48.042H148.433C148.316 48.6507 148.015 49.1457 147.531 49.527C147.047 49.901 146.435 50.088 145.694 50.088C145.137 50.088 144.638 49.9633 144.198 49.714C143.758 49.4647 143.414 49.109 143.164 48.647C142.915 48.1777 142.79 47.6313 142.79 47.008C142.79 46.3847 142.911 45.842 143.153 45.38C143.403 44.918 143.747 44.566 144.187 44.324C144.627 44.0747 145.13 43.95 145.694 43.95C146.266 43.95 146.761 44.0747 147.179 44.324C147.605 44.566 147.927 44.8923 148.147 45.303C148.367 45.7063 148.477 46.1427 148.477 46.612ZM147.982 46.799C148.004 46.271 147.909 45.8237 147.696 45.457C147.491 45.0903 147.209 44.819 146.849 44.643C146.49 44.4597 146.101 44.368 145.683 44.368C145.265 44.368 144.877 44.4597 144.517 44.643C144.165 44.819 143.876 45.0903 143.648 45.457C143.428 45.8237 143.311 46.271 143.296 46.799H147.982ZM151.964 50.088C151.297 50.088 150.751 49.9413 150.325 49.648C149.907 49.3547 149.673 48.9367 149.621 48.394H150.127C150.164 48.7827 150.34 49.0907 150.655 49.318C150.978 49.5453 151.414 49.659 151.964 49.659C152.419 49.659 152.778 49.5453 153.042 49.318C153.314 49.0833 153.449 48.7973 153.449 48.46C153.449 48.2253 153.376 48.0347 153.229 47.888C153.09 47.734 152.914 47.6167 152.701 47.536C152.489 47.4553 152.199 47.3673 151.832 47.272C151.392 47.1547 151.037 47.041 150.765 46.931C150.494 46.8137 150.263 46.6413 150.072 46.414C149.882 46.1867 149.786 45.8823 149.786 45.501C149.786 45.2223 149.871 44.9657 150.039 44.731C150.208 44.489 150.443 44.2983 150.743 44.159C151.044 44.0197 151.385 43.95 151.766 43.95C152.39 43.95 152.892 44.1077 153.273 44.423C153.662 44.731 153.871 45.16 153.9 45.71H153.405C153.383 45.314 153.229 44.9913 152.943 44.742C152.657 44.4927 152.261 44.368 151.755 44.368C151.33 44.368 150.978 44.478 150.699 44.698C150.421 44.918 150.281 45.1857 150.281 45.501C150.281 45.7797 150.358 46.007 150.512 46.183C150.674 46.3517 150.868 46.4837 151.095 46.579C151.33 46.667 151.638 46.7623 152.019 46.865C152.437 46.975 152.771 47.085 153.02 47.195C153.277 47.2977 153.493 47.4517 153.669 47.657C153.845 47.855 153.933 48.1227 153.933 48.46C153.933 48.768 153.849 49.0467 153.68 49.296C153.512 49.5453 153.277 49.7397 152.976 49.879C152.676 50.0183 152.338 50.088 151.964 50.088ZM155.694 42.696C155.577 42.696 155.478 42.6593 155.397 42.586C155.316 42.5053 155.276 42.399 155.276 42.267C155.276 42.1423 155.316 42.0397 155.397 41.959C155.478 41.8783 155.577 41.838 155.694 41.838C155.811 41.838 155.91 41.8783 155.991 41.959C156.072 42.0397 156.112 42.1423 156.112 42.267C156.112 42.399 156.072 42.5053 155.991 42.586C155.91 42.6593 155.811 42.696 155.694 42.696ZM155.936 44.027V50H155.441V44.027H155.936ZM159.742 50.088C159.074 50.088 158.528 49.9413 158.103 49.648C157.685 49.3547 157.45 48.9367 157.399 48.394H157.905C157.941 48.7827 158.117 49.0907 158.433 49.318C158.755 49.5453 159.192 49.659 159.742 49.659C160.196 49.659 160.556 49.5453 160.82 49.318C161.091 49.0833 161.227 48.7973 161.227 48.46C161.227 48.2253 161.153 48.0347 161.007 47.888C160.867 47.734 160.691 47.6167 160.479 47.536C160.266 47.4553 159.976 47.3673 159.61 47.272C159.17 47.1547 158.814 47.041 158.543 46.931C158.271 46.8137 158.04 46.6413 157.85 46.414C157.659 46.1867 157.564 45.8823 157.564 45.501C157.564 45.2223 157.648 44.9657 157.817 44.731C157.985 44.489 158.22 44.2983 158.521 44.159C158.821 44.0197 159.162 43.95 159.544 43.95C160.167 43.95 160.669 44.1077 161.051 44.423C161.439 44.731 161.648 45.16 161.678 45.71H161.183C161.161 45.314 161.007 44.9913 160.721 44.742C160.435 44.4927 160.039 44.368 159.533 44.368C159.107 44.368 158.755 44.478 158.477 44.698C158.198 44.918 158.059 45.1857 158.059 45.501C158.059 45.7797 158.136 46.007 158.29 46.183C158.451 46.3517 158.645 46.4837 158.873 46.579C159.107 46.667 159.415 46.7623 159.797 46.865C160.215 46.975 160.548 47.085 160.798 47.195C161.054 47.2977 161.271 47.4517 161.447 47.657C161.623 47.855 161.711 48.1227 161.711 48.46C161.711 48.768 161.626 49.0467 161.458 49.296C161.289 49.5453 161.054 49.7397 160.754 49.879C160.453 50.0183 160.116 50.088 159.742 50.088Z"
        fill="#331E6D" />
    <path
        d="M74.303 28.871C73.533 28.871 72.796 28.761 72.092 28.541C71.41 28.343 70.816 27.903 70.31 27.221C70.376 26.693 70.53 25.923 70.772 24.911C71.036 23.899 71.355 22.755 71.729 21.479C72.103 20.181 72.499 18.85 72.917 17.486C73.335 16.122 73.742 14.824 74.138 13.592C74.556 12.338 74.919 11.249 75.227 10.325C75.557 9.379 75.799 8.697 75.953 8.279C76.019 8.103 76.129 7.839 76.283 7.487C76.437 7.135 76.635 6.772 76.877 6.398C77.119 6.024 77.394 5.716 77.702 5.474C78.032 5.21 78.384 5.078 78.758 5.078C79.132 5.078 79.55 5.232 80.012 5.54C79.33 7.08 78.637 8.796 77.933 10.688C77.251 12.558 76.591 14.494 75.953 16.496C75.337 18.476 74.765 20.412 74.237 22.304C73.731 24.174 73.313 25.89 72.983 27.452C73.159 27.518 73.401 27.562 73.709 27.584C74.039 27.628 74.347 27.65 74.633 27.65C76.063 27.65 77.427 27.298 78.725 26.594C80.023 25.912 81.211 24.999 82.289 23.855C83.389 22.689 84.346 21.391 85.16 19.961C85.974 18.509 86.601 17.024 87.041 15.506C87.481 13.988 87.701 12.536 87.701 11.15C87.701 9.368 87.393 7.927 86.777 6.827C86.183 5.705 85.358 4.891 84.302 4.385C83.246 3.857 82.036 3.593 80.672 3.593C79.242 3.593 77.955 3.857 76.811 4.385C75.667 4.891 74.765 5.595 74.105 6.497C73.467 7.377 73.148 8.389 73.148 9.533C73.148 9.775 73.17 10.039 73.214 10.325C73.258 10.589 73.335 10.853 73.445 11.117C72.499 11.117 71.817 10.919 71.399 10.523C71.003 10.105 70.805 9.599 70.805 9.005C70.805 8.235 71.08 7.454 71.63 6.662C72.202 5.87 72.983 5.144 73.973 4.484C74.985 3.802 76.151 3.263 77.471 2.867C78.791 2.449 80.221 2.24 81.761 2.24C83.917 2.24 85.644 2.658 86.942 3.494C88.24 4.308 89.175 5.419 89.747 6.827C90.341 8.213 90.638 9.764 90.638 11.48C90.638 13.372 90.33 15.187 89.714 16.925C89.12 18.641 88.284 20.225 87.206 21.677C86.15 23.129 84.918 24.394 83.51 25.472C82.124 26.55 80.639 27.386 79.055 27.98C77.493 28.574 75.909 28.871 74.303 28.871ZM92.1733 27.254C91.6893 27.254 91.3373 26.88 91.1173 26.132C90.9193 25.384 90.8203 24.515 90.8203 23.525C90.8203 22.513 90.9853 21.292 91.3153 19.862C91.6673 18.432 92.1293 16.925 92.7013 15.341C93.2953 13.757 93.9443 12.206 94.6483 10.688C95.3743 9.17 96.1113 7.795 96.8593 6.563C97.6293 5.309 98.3553 4.308 99.0373 3.56C99.7413 2.812 100.357 2.438 100.885 2.438C101.347 2.438 101.699 2.691 101.941 3.197C102.183 3.703 102.304 4.231 102.304 4.781C102.304 5.375 102.161 6.112 101.875 6.992C101.611 7.85 101.237 8.774 100.753 9.764C100.269 10.754 99.6973 11.733 99.0373 12.701C98.3993 13.647 97.6953 14.516 96.9253 15.308C96.1773 16.1 95.3963 16.738 94.5823 17.222C94.2963 17.97 94.0653 18.674 93.8893 19.334C93.7353 19.972 93.6253 20.577 93.5593 21.149C93.4933 21.721 93.4603 22.282 93.4603 22.832C93.4603 22.942 93.4603 23.063 93.4603 23.195C93.4823 23.305 93.4933 23.415 93.4933 23.525C93.5813 23.393 93.7243 23.052 93.9223 22.502C94.1203 21.952 94.3843 21.314 94.7143 20.588C95.0663 19.84 95.4953 19.114 96.0013 18.41C96.5073 17.684 97.1013 17.09 97.7833 16.628C98.4653 16.144 99.2463 15.902 100.126 15.902C100.874 15.902 101.457 16.078 101.875 16.43C102.293 16.76 102.59 17.178 102.766 17.684C102.942 18.168 103.03 18.663 103.03 19.169C103.03 19.873 102.909 20.533 102.667 21.149C102.447 21.765 102.216 22.348 101.974 22.898C101.754 23.426 101.644 23.932 101.644 24.416C101.644 24.812 101.732 25.087 101.908 25.241C102.084 25.395 102.293 25.472 102.535 25.472C103.019 25.472 103.58 25.23 104.218 24.746C104.878 24.262 105.527 23.624 106.165 22.832C106.825 22.018 107.386 21.127 107.848 20.159L108.376 20.72C107.87 21.82 107.276 22.832 106.594 23.756C105.912 24.68 105.164 25.417 104.35 25.967C103.536 26.517 102.656 26.792 101.71 26.792C100.874 26.792 100.236 26.572 99.7963 26.132C99.3563 25.692 99.1363 25.142 99.1363 24.482C99.1363 24.02 99.2133 23.514 99.3673 22.964C99.5433 22.392 99.7083 21.82 99.8623 21.248C100.016 20.676 100.093 20.159 100.093 19.697C100.093 19.169 99.9723 18.806 99.7303 18.608C99.5103 18.41 99.2353 18.311 98.9053 18.311C98.3553 18.311 97.8603 18.531 97.4203 18.971C96.9803 19.389 96.5843 19.939 96.2323 20.621C95.8803 21.303 95.5503 22.029 95.2423 22.799C94.9343 23.547 94.6263 24.262 94.3183 24.944C94.0103 25.626 93.6803 26.176 93.3283 26.594C92.9983 27.034 92.6133 27.254 92.1733 27.254ZM95.2753 15.11C95.8473 14.604 96.3973 13.999 96.9253 13.295C97.4533 12.591 97.9373 11.865 98.3773 11.117C98.8393 10.347 99.2353 9.61 99.5653 8.906C99.9173 8.18 100.192 7.531 100.39 6.959C100.588 6.387 100.698 5.947 100.72 5.639C100.72 5.617 100.72 5.606 100.72 5.606C100.72 5.584 100.72 5.562 100.72 5.54C100.588 5.54 100.302 5.815 99.8623 6.365C99.4443 6.893 98.9493 7.619 98.3773 8.543C97.8273 9.445 97.2663 10.468 96.6943 11.612C96.1443 12.756 95.6713 13.922 95.2753 15.11ZM108.81 27.551C108.084 27.551 107.457 27.309 106.929 26.825C106.379 26.341 106.104 25.615 106.104 24.647C106.104 23.877 106.28 23.041 106.632 22.139C106.984 21.237 107.468 20.346 108.084 19.466C108.7 18.586 109.404 17.794 110.196 17.09C110.988 16.364 111.835 15.781 112.737 15.341C113.639 14.901 114.541 14.681 115.443 14.681C116.389 14.681 117.192 14.923 117.852 15.407C118.512 15.891 118.842 16.529 118.842 17.321C118.842 17.915 118.633 18.344 118.215 18.608C117.797 18.872 117.302 18.949 116.73 18.839C116.774 18.641 116.807 18.443 116.829 18.245C116.873 18.047 116.895 17.838 116.895 17.618C116.895 17.178 116.807 16.782 116.631 16.43C116.455 16.078 116.081 15.902 115.509 15.902C114.893 15.902 114.266 16.111 113.628 16.529C112.99 16.947 112.374 17.497 111.78 18.179C111.208 18.839 110.691 19.576 110.229 20.39C109.767 21.182 109.404 21.963 109.14 22.733C108.876 23.503 108.744 24.196 108.744 24.812C108.744 25.516 108.997 25.868 109.503 25.868C110.009 25.868 110.57 25.626 111.186 25.142C111.802 24.636 112.418 24.009 113.034 23.261C113.672 22.513 114.277 21.754 114.849 20.984C115.421 20.192 115.916 19.521 116.334 18.971C116.4 18.861 116.488 18.806 116.598 18.806C116.686 18.828 116.851 18.883 117.093 18.971C117.357 19.037 117.599 19.147 117.819 19.301C118.039 19.455 118.149 19.653 118.149 19.895C118.149 20.115 118.05 20.401 117.852 20.753C117.676 21.083 117.456 21.457 117.192 21.875C116.95 22.271 116.73 22.678 116.532 23.096C116.356 23.492 116.268 23.877 116.268 24.251C116.268 24.537 116.345 24.812 116.499 25.076C116.653 25.318 116.906 25.439 117.258 25.439C117.786 25.439 118.523 25.054 119.469 24.284C120.437 23.492 121.416 22.161 122.406 20.291L123.033 20.918C122.505 22.106 121.867 23.162 121.119 24.086C120.393 24.988 119.623 25.692 118.809 26.198C117.995 26.726 117.17 26.99 116.334 26.99C115.432 26.99 114.761 26.704 114.321 26.132C113.881 25.56 113.639 24.944 113.595 24.284C113.595 24.24 113.595 24.207 113.595 24.185C113.595 24.163 113.595 24.141 113.595 24.119C112.715 25.175 111.901 26.011 111.153 26.627C110.427 27.243 109.646 27.551 108.81 27.551ZM123.473 27.551C122.747 27.551 122.12 27.309 121.592 26.825C121.042 26.341 120.767 25.615 120.767 24.647C120.767 23.877 120.943 23.041 121.295 22.139C121.647 21.237 122.131 20.346 122.747 19.466C123.363 18.586 124.067 17.794 124.859 17.09C125.651 16.364 126.498 15.781 127.4 15.341C128.302 14.901 129.204 14.681 130.106 14.681C131.052 14.681 131.855 14.923 132.515 15.407C133.175 15.891 133.505 16.529 133.505 17.321C133.505 17.915 133.296 18.344 132.878 18.608C132.46 18.872 131.965 18.949 131.393 18.839C131.437 18.641 131.47 18.443 131.492 18.245C131.536 18.047 131.558 17.838 131.558 17.618C131.558 17.178 131.47 16.782 131.294 16.43C131.118 16.078 130.744 15.902 130.172 15.902C129.556 15.902 128.929 16.111 128.291 16.529C127.653 16.947 127.037 17.497 126.443 18.179C125.871 18.839 125.354 19.576 124.892 20.39C124.43 21.182 124.067 21.963 123.803 22.733C123.539 23.503 123.407 24.196 123.407 24.812C123.407 25.516 123.66 25.868 124.166 25.868C124.672 25.868 125.233 25.626 125.849 25.142C126.465 24.636 127.081 24.009 127.697 23.261C128.335 22.513 128.94 21.754 129.512 20.984C130.084 20.192 130.579 19.521 130.997 18.971C131.063 18.861 131.151 18.806 131.261 18.806C131.349 18.828 131.514 18.883 131.756 18.971C132.02 19.037 132.262 19.147 132.482 19.301C132.702 19.455 132.812 19.653 132.812 19.895C132.812 20.115 132.713 20.401 132.515 20.753C132.339 21.083 132.119 21.457 131.855 21.875C131.613 22.271 131.393 22.678 131.195 23.096C131.019 23.492 130.931 23.877 130.931 24.251C130.931 24.537 131.008 24.812 131.162 25.076C131.316 25.318 131.569 25.439 131.921 25.439C132.449 25.439 133.186 25.054 134.132 24.284C135.1 23.492 136.079 22.161 137.069 20.291L137.696 20.918C137.168 22.106 136.53 23.162 135.782 24.086C135.056 24.988 134.286 25.692 133.472 26.198C132.658 26.726 131.833 26.99 130.997 26.99C130.095 26.99 129.424 26.704 128.984 26.132C128.544 25.56 128.302 24.944 128.258 24.284C128.258 24.24 128.258 24.207 128.258 24.185C128.258 24.163 128.258 24.141 128.258 24.119C127.378 25.175 126.564 26.011 125.816 26.627C125.09 27.243 124.309 27.551 123.473 27.551ZM137.938 35.24C137.388 35.24 136.871 35.075 136.387 34.745C135.925 34.415 135.694 33.876 135.694 33.128C135.694 32.424 135.892 31.786 136.288 31.214C136.706 30.664 137.245 30.147 137.905 29.663C138.587 29.201 139.313 28.772 140.083 28.376C140.853 27.98 141.601 27.606 142.327 27.254C142.569 26.66 142.8 26.022 143.02 25.34C143.24 24.658 143.449 23.921 143.647 23.129C142.877 24.097 142.063 24.9 141.205 25.538C140.369 26.176 139.511 26.495 138.631 26.495C137.751 26.495 137.047 26.187 136.519 25.571C136.013 24.955 135.76 24.141 135.76 23.129C135.76 21.963 136.046 20.874 136.618 19.862C137.212 18.828 137.971 17.915 138.895 17.123C139.819 16.309 140.809 15.682 141.865 15.242C142.921 14.78 143.933 14.549 144.901 14.549C145.605 14.549 146.133 14.681 146.485 14.945C146.837 15.187 147.013 15.473 147.013 15.803C147.013 16.067 146.936 16.276 146.782 16.43C146.628 16.584 146.529 16.672 146.485 16.694C146.265 16.452 146.034 16.298 145.792 16.232C145.572 16.144 145.308 16.1 145 16.1C144.142 16.1 143.317 16.342 142.525 16.826C141.733 17.31 141.029 17.937 140.413 18.707C139.819 19.455 139.346 20.236 138.994 21.05C138.642 21.864 138.466 22.601 138.466 23.261C138.466 23.701 138.565 24.042 138.763 24.284C138.961 24.504 139.203 24.614 139.489 24.614C140.105 24.614 140.853 24.218 141.733 23.426C142.613 22.612 143.46 21.633 144.274 20.489C144.318 20.313 144.351 20.159 144.373 20.027C144.417 19.873 144.45 19.73 144.472 19.598C144.692 18.718 144.956 18.069 145.264 17.651C145.572 17.233 146.001 17.024 146.551 17.024C146.661 17.024 146.793 17.035 146.947 17.057C147.123 17.079 147.31 17.112 147.508 17.156C147.508 17.552 147.398 18.201 147.178 19.103C146.958 20.005 146.661 21.061 146.287 22.271C145.913 23.459 145.495 24.68 145.033 25.934C145.715 25.648 146.408 25.252 147.112 24.746C147.816 24.218 148.465 23.591 149.059 22.865C149.653 22.117 150.104 21.292 150.412 20.39L151.006 20.984C150.654 21.996 150.104 22.92 149.356 23.756C148.63 24.592 147.838 25.318 146.98 25.934C146.122 26.528 145.33 26.99 144.604 27.32C144.01 28.772 143.361 30.092 142.657 31.28C141.975 32.49 141.238 33.447 140.446 34.151C139.676 34.877 138.84 35.24 137.938 35.24ZM137.806 33.722C138.202 33.722 138.741 33.348 139.423 32.6C140.127 31.852 140.886 30.587 141.7 28.805C140.886 29.201 140.138 29.608 139.456 30.026C138.774 30.444 138.224 30.884 137.806 31.346C137.388 31.808 137.179 32.292 137.179 32.798C137.179 33.084 137.234 33.304 137.344 33.458C137.476 33.634 137.63 33.722 137.806 33.722ZM151.446 27.551C150.72 27.551 150.093 27.309 149.565 26.825C149.015 26.341 148.74 25.615 148.74 24.647C148.74 23.877 148.916 23.041 149.268 22.139C149.62 21.237 150.104 20.346 150.72 19.466C151.336 18.586 152.04 17.794 152.832 17.09C153.624 16.364 154.471 15.781 155.373 15.341C156.275 14.901 157.177 14.681 158.079 14.681C159.025 14.681 159.828 14.923 160.488 15.407C161.148 15.891 161.478 16.529 161.478 17.321C161.478 17.915 161.269 18.344 160.851 18.608C160.433 18.872 159.938 18.949 159.366 18.839C159.41 18.641 159.443 18.443 159.465 18.245C159.509 18.047 159.531 17.838 159.531 17.618C159.531 17.178 159.443 16.782 159.267 16.43C159.091 16.078 158.717 15.902 158.145 15.902C157.529 15.902 156.902 16.111 156.264 16.529C155.626 16.947 155.01 17.497 154.416 18.179C153.844 18.839 153.327 19.576 152.865 20.39C152.403 21.182 152.04 21.963 151.776 22.733C151.512 23.503 151.38 24.196 151.38 24.812C151.38 25.516 151.633 25.868 152.139 25.868C152.645 25.868 153.206 25.626 153.822 25.142C154.438 24.636 155.054 24.009 155.67 23.261C156.308 22.513 156.913 21.754 157.485 20.984C158.057 20.192 158.552 19.521 158.97 18.971C159.036 18.861 159.124 18.806 159.234 18.806C159.322 18.828 159.487 18.883 159.729 18.971C159.993 19.037 160.235 19.147 160.455 19.301C160.675 19.455 160.785 19.653 160.785 19.895C160.785 20.115 160.686 20.401 160.488 20.753C160.312 21.083 160.092 21.457 159.828 21.875C159.586 22.271 159.366 22.678 159.168 23.096C158.992 23.492 158.904 23.877 158.904 24.251C158.904 24.537 158.981 24.812 159.135 25.076C159.289 25.318 159.542 25.439 159.894 25.439C160.422 25.439 161.159 25.054 162.105 24.284C163.073 23.492 164.052 22.161 165.042 20.291L165.669 20.918C165.141 22.106 164.503 23.162 163.755 24.086C163.029 24.988 162.259 25.692 161.445 26.198C160.631 26.726 159.806 26.99 158.97 26.99C158.068 26.99 157.397 26.704 156.957 26.132C156.517 25.56 156.275 24.944 156.231 24.284C156.231 24.24 156.231 24.207 156.231 24.185C156.231 24.163 156.231 24.141 156.231 24.119C155.351 25.175 154.537 26.011 153.789 26.627C153.063 27.243 152.282 27.551 151.446 27.551ZM68.594 46.15C68.594 45.3873 68.7517 44.709 69.067 44.115C69.3897 43.5137 69.8297 43.0443 70.387 42.707C70.9517 42.3697 71.5823 42.201 72.279 42.201C73.159 42.201 73.8997 42.4063 74.501 42.817C75.1023 43.2277 75.5423 43.8033 75.821 44.544H75.249C75.029 43.9573 74.6623 43.4953 74.149 43.158C73.643 42.8133 73.0197 42.641 72.279 42.641C71.685 42.641 71.146 42.784 70.662 43.07C70.178 43.3487 69.7967 43.7557 69.518 44.291C69.2393 44.819 69.1 45.4387 69.1 46.15C69.1 46.854 69.2393 47.47 69.518 47.998C69.7967 48.5187 70.178 48.922 70.662 49.208C71.146 49.494 71.685 49.637 72.279 49.637C73.0197 49.637 73.643 49.4683 74.149 49.131C74.6623 48.7863 75.029 48.3207 75.249 47.734H75.821C75.5423 48.4747 75.1023 49.0503 74.501 49.461C73.8997 49.8717 73.159 50.077 72.279 50.077C71.5823 50.077 70.9517 49.912 70.387 49.582C69.8297 49.2447 69.3897 48.779 69.067 48.185C68.7517 47.5837 68.594 46.9053 68.594 46.15ZM79.9958 50.088C79.4385 50.088 78.9362 49.9633 78.4888 49.714C78.0415 49.4647 77.6895 49.109 77.4328 48.647C77.1835 48.1777 77.0588 47.6313 77.0588 47.008C77.0588 46.392 77.1872 45.853 77.4438 45.391C77.7005 44.9217 78.0525 44.566 78.4998 44.324C78.9545 44.0747 79.4605 43.95 80.0178 43.95C80.5752 43.95 81.0775 44.0747 81.5248 44.324C81.9722 44.566 82.3205 44.918 82.5698 45.38C82.8265 45.842 82.9548 46.3847 82.9548 47.008C82.9548 47.6313 82.8265 48.1777 82.5698 48.647C82.3132 49.109 81.9575 49.4647 81.5028 49.714C81.0555 49.9633 80.5532 50.088 79.9958 50.088ZM79.9958 49.648C80.4285 49.648 80.8318 49.5527 81.2058 49.362C81.5872 49.164 81.8915 48.867 82.1188 48.471C82.3462 48.075 82.4598 47.5873 82.4598 47.008C82.4598 46.436 82.3462 45.952 82.1188 45.556C81.8915 45.16 81.5908 44.8667 81.2168 44.676C80.8428 44.478 80.4395 44.379 80.0068 44.379C79.5742 44.379 79.1708 44.478 78.7968 44.676C78.4302 44.8667 78.1332 45.16 77.9058 45.556C77.6785 45.952 77.5648 46.436 77.5648 47.008C77.5648 47.5873 77.6748 48.075 77.8948 48.471C78.1222 48.867 78.4192 49.164 78.7858 49.362C79.1598 49.5527 79.5632 49.648 79.9958 49.648ZM87.1517 43.906C87.863 43.906 88.4424 44.126 88.8897 44.566C89.337 44.9987 89.5607 45.644 89.5607 46.502V50H89.0767V46.535C89.0767 45.8237 88.897 45.281 88.5377 44.907C88.1784 44.5257 87.6907 44.335 87.0747 44.335C86.4294 44.335 85.9124 44.5403 85.5237 44.951C85.1424 45.3617 84.9517 45.9703 84.9517 46.777V50H84.4567V44.027H84.9517V45.292C85.1204 44.8447 85.399 44.5037 85.7877 44.269C86.1837 44.027 86.6384 43.906 87.1517 43.906ZM94.0052 43.906C94.7165 43.906 95.2959 44.126 95.7432 44.566C96.1905 44.9987 96.4142 45.644 96.4142 46.502V50H95.9302V46.535C95.9302 45.8237 95.7505 45.281 95.3912 44.907C95.0319 44.5257 94.5442 44.335 93.9282 44.335C93.2829 44.335 92.7659 44.5403 92.3772 44.951C91.9959 45.3617 91.8052 45.9703 91.8052 46.777V50H91.3102V44.027H91.8052V45.292C91.9739 44.8447 92.2525 44.5037 92.6412 44.269C93.0372 44.027 93.4919 43.906 94.0052 43.906ZM103.543 46.612C103.543 46.876 103.535 47.074 103.521 47.206H98.3617C98.3764 47.7413 98.4937 48.1923 98.7137 48.559C98.9337 48.9257 99.2234 49.2007 99.5827 49.384C99.9421 49.5673 100.334 49.659 100.76 49.659C101.346 49.659 101.838 49.516 102.234 49.23C102.63 48.9367 102.879 48.5407 102.982 48.042H103.499C103.381 48.6507 103.081 49.1457 102.597 49.527C102.113 49.901 101.5 50.088 100.76 50.088C100.202 50.088 99.7037 49.9633 99.2637 49.714C98.8237 49.4647 98.4791 49.109 98.2297 48.647C97.9804 48.1777 97.8557 47.6313 97.8557 47.008C97.8557 46.3847 97.9767 45.842 98.2187 45.38C98.4681 44.918 98.8127 44.566 99.2527 44.324C99.6927 44.0747 100.195 43.95 100.76 43.95C101.332 43.95 101.827 44.0747 102.245 44.324C102.67 44.566 102.993 44.8923 103.213 45.303C103.433 45.7063 103.543 46.1427 103.543 46.612ZM103.048 46.799C103.07 46.271 102.974 45.8237 102.762 45.457C102.556 45.0903 102.274 44.819 101.915 44.643C101.555 44.4597 101.167 44.368 100.749 44.368C100.331 44.368 99.9421 44.4597 99.5827 44.643C99.2307 44.819 98.9411 45.0903 98.7137 45.457C98.4937 45.8237 98.3764 46.271 98.3617 46.799H103.048ZM104.731 47.008C104.731 46.3847 104.852 45.842 105.094 45.38C105.343 44.918 105.684 44.566 106.117 44.324C106.557 44.0747 107.059 43.95 107.624 43.95C108.372 43.95 108.984 44.137 109.461 44.511C109.945 44.885 110.245 45.3873 110.363 46.018H109.846C109.75 45.5047 109.501 45.1013 109.098 44.808C108.702 44.5147 108.21 44.368 107.624 44.368C107.184 44.368 106.784 44.467 106.425 44.665C106.065 44.8557 105.776 45.1527 105.556 45.556C105.343 45.952 105.237 46.436 105.237 47.008C105.237 47.5873 105.343 48.075 105.556 48.471C105.776 48.867 106.065 49.164 106.425 49.362C106.784 49.56 107.184 49.659 107.624 49.659C108.21 49.659 108.702 49.5123 109.098 49.219C109.501 48.9257 109.75 48.5223 109.846 48.009H110.363C110.245 48.6323 109.945 49.1347 109.461 49.516C108.977 49.8973 108.364 50.088 107.624 50.088C107.059 50.088 106.557 49.9633 106.117 49.714C105.684 49.4647 105.343 49.109 105.094 48.647C104.852 48.1777 104.731 47.6313 104.731 47.008ZM112.608 44.456V48.405C112.608 48.845 112.688 49.1493 112.85 49.318C113.011 49.4793 113.297 49.56 113.708 49.56H114.379V50H113.631C113.11 50 112.725 49.879 112.476 49.637C112.234 49.3877 112.113 48.977 112.113 48.405V44.456H111.211V44.027H112.113V42.509H112.608V44.027H114.379V44.456H112.608ZM115.937 42.696C115.82 42.696 115.721 42.6593 115.64 42.586C115.56 42.5053 115.519 42.399 115.519 42.267C115.519 42.1423 115.56 42.0397 115.64 41.959C115.721 41.8783 115.82 41.838 115.937 41.838C116.055 41.838 116.154 41.8783 116.234 41.959C116.315 42.0397 116.355 42.1423 116.355 42.267C116.355 42.399 116.315 42.5053 116.234 42.586C116.154 42.6593 116.055 42.696 115.937 42.696ZM116.179 44.027V50H115.684V44.027H116.179ZM120.689 43.906C121.4 43.906 121.979 44.126 122.427 44.566C122.874 44.9987 123.098 45.644 123.098 46.502V50H122.614V46.535C122.614 45.8237 122.434 45.281 122.075 44.907C121.715 44.5257 121.228 44.335 120.612 44.335C119.966 44.335 119.449 44.5403 119.061 44.951C118.679 45.3617 118.489 45.9703 118.489 46.777V50H117.994V44.027H118.489V45.292C118.657 44.8447 118.936 44.5037 119.325 44.269C119.721 44.027 120.175 43.906 120.689 43.906ZM127.421 43.95C128.052 43.95 128.587 44.104 129.027 44.412C129.467 44.7127 129.775 45.1013 129.951 45.578V44.027H130.446V50.187C130.446 50.737 130.325 51.2173 130.083 51.628C129.841 52.046 129.515 52.365 129.104 52.585C128.694 52.8123 128.235 52.926 127.729 52.926C126.981 52.926 126.362 52.7463 125.87 52.387C125.379 52.0277 125.056 51.5437 124.902 50.935H125.397C125.544 51.4117 125.819 51.7893 126.222 52.068C126.626 52.354 127.128 52.497 127.729 52.497C128.147 52.497 128.525 52.4017 128.862 52.211C129.2 52.0277 129.464 51.76 129.654 51.408C129.852 51.0633 129.951 50.6563 129.951 50.187V48.438C129.775 48.9147 129.464 49.3107 129.016 49.626C128.576 49.934 128.045 50.088 127.421 50.088C126.864 50.088 126.365 49.9633 125.925 49.714C125.493 49.4573 125.152 49.098 124.902 48.636C124.66 48.1667 124.539 47.624 124.539 47.008C124.539 46.392 124.66 45.853 124.902 45.391C125.152 44.929 125.493 44.5733 125.925 44.324C126.365 44.0747 126.864 43.95 127.421 43.95ZM129.951 47.008C129.951 46.4873 129.841 46.029 129.621 45.633C129.409 45.2297 129.115 44.9217 128.741 44.709C128.367 44.489 127.949 44.379 127.487 44.379C127.003 44.379 126.578 44.4853 126.211 44.698C125.845 44.9033 125.559 45.204 125.353 45.6C125.148 45.996 125.045 46.4653 125.045 47.008C125.045 47.5507 125.148 48.02 125.353 48.416C125.559 48.812 125.845 49.1163 126.211 49.329C126.585 49.5417 127.011 49.648 127.487 49.648C127.949 49.648 128.367 49.5417 128.741 49.329C129.123 49.109 129.42 48.801 129.632 48.405C129.845 48.0017 129.951 47.536 129.951 47.008ZM137.52 42.278C138.826 42.278 139.83 42.619 140.534 43.301C141.246 43.983 141.601 44.9327 141.601 46.15C141.601 47.3673 141.246 48.3133 140.534 48.988C139.83 49.6627 138.826 50 137.52 50H135.353V42.278H137.52ZM137.52 49.582C138.686 49.582 139.574 49.2813 140.182 48.68C140.791 48.0713 141.095 47.228 141.095 46.15C141.095 45.0647 140.791 44.2177 140.182 43.609C139.574 43.0003 138.686 42.696 137.52 42.696H135.848V49.582H137.52ZM148.477 46.612C148.477 46.876 148.47 47.074 148.455 47.206H143.296C143.311 47.7413 143.428 48.1923 143.648 48.559C143.868 48.9257 144.158 49.2007 144.517 49.384C144.877 49.5673 145.269 49.659 145.694 49.659C146.281 49.659 146.772 49.516 147.168 49.23C147.564 48.9367 147.814 48.5407 147.916 48.042H148.433C148.316 48.6507 148.015 49.1457 147.531 49.527C147.047 49.901 146.435 50.088 145.694 50.088C145.137 50.088 144.638 49.9633 144.198 49.714C143.758 49.4647 143.414 49.109 143.164 48.647C142.915 48.1777 142.79 47.6313 142.79 47.008C142.79 46.3847 142.911 45.842 143.153 45.38C143.403 44.918 143.747 44.566 144.187 44.324C144.627 44.0747 145.13 43.95 145.694 43.95C146.266 43.95 146.761 44.0747 147.179 44.324C147.605 44.566 147.927 44.8923 148.147 45.303C148.367 45.7063 148.477 46.1427 148.477 46.612ZM147.982 46.799C148.004 46.271 147.909 45.8237 147.696 45.457C147.491 45.0903 147.209 44.819 146.849 44.643C146.49 44.4597 146.101 44.368 145.683 44.368C145.265 44.368 144.877 44.4597 144.517 44.643C144.165 44.819 143.876 45.0903 143.648 45.457C143.428 45.8237 143.311 46.271 143.296 46.799H147.982ZM151.964 50.088C151.297 50.088 150.751 49.9413 150.325 49.648C149.907 49.3547 149.673 48.9367 149.621 48.394H150.127C150.164 48.7827 150.34 49.0907 150.655 49.318C150.978 49.5453 151.414 49.659 151.964 49.659C152.419 49.659 152.778 49.5453 153.042 49.318C153.314 49.0833 153.449 48.7973 153.449 48.46C153.449 48.2253 153.376 48.0347 153.229 47.888C153.09 47.734 152.914 47.6167 152.701 47.536C152.489 47.4553 152.199 47.3673 151.832 47.272C151.392 47.1547 151.037 47.041 150.765 46.931C150.494 46.8137 150.263 46.6413 150.072 46.414C149.882 46.1867 149.786 45.8823 149.786 45.501C149.786 45.2223 149.871 44.9657 150.039 44.731C150.208 44.489 150.443 44.2983 150.743 44.159C151.044 44.0197 151.385 43.95 151.766 43.95C152.39 43.95 152.892 44.1077 153.273 44.423C153.662 44.731 153.871 45.16 153.9 45.71H153.405C153.383 45.314 153.229 44.9913 152.943 44.742C152.657 44.4927 152.261 44.368 151.755 44.368C151.33 44.368 150.978 44.478 150.699 44.698C150.421 44.918 150.281 45.1857 150.281 45.501C150.281 45.7797 150.358 46.007 150.512 46.183C150.674 46.3517 150.868 46.4837 151.095 46.579C151.33 46.667 151.638 46.7623 152.019 46.865C152.437 46.975 152.771 47.085 153.02 47.195C153.277 47.2977 153.493 47.4517 153.669 47.657C153.845 47.855 153.933 48.1227 153.933 48.46C153.933 48.768 153.849 49.0467 153.68 49.296C153.512 49.5453 153.277 49.7397 152.976 49.879C152.676 50.0183 152.338 50.088 151.964 50.088ZM155.694 42.696C155.577 42.696 155.478 42.6593 155.397 42.586C155.316 42.5053 155.276 42.399 155.276 42.267C155.276 42.1423 155.316 42.0397 155.397 41.959C155.478 41.8783 155.577 41.838 155.694 41.838C155.811 41.838 155.91 41.8783 155.991 41.959C156.072 42.0397 156.112 42.1423 156.112 42.267C156.112 42.399 156.072 42.5053 155.991 42.586C155.91 42.6593 155.811 42.696 155.694 42.696ZM155.936 44.027V50H155.441V44.027H155.936ZM159.742 50.088C159.074 50.088 158.528 49.9413 158.103 49.648C157.685 49.3547 157.45 48.9367 157.399 48.394H157.905C157.941 48.7827 158.117 49.0907 158.433 49.318C158.755 49.5453 159.192 49.659 159.742 49.659C160.196 49.659 160.556 49.5453 160.82 49.318C161.091 49.0833 161.227 48.7973 161.227 48.46C161.227 48.2253 161.153 48.0347 161.007 47.888C160.867 47.734 160.691 47.6167 160.479 47.536C160.266 47.4553 159.976 47.3673 159.61 47.272C159.17 47.1547 158.814 47.041 158.543 46.931C158.271 46.8137 158.04 46.6413 157.85 46.414C157.659 46.1867 157.564 45.8823 157.564 45.501C157.564 45.2223 157.648 44.9657 157.817 44.731C157.985 44.489 158.22 44.2983 158.521 44.159C158.821 44.0197 159.162 43.95 159.544 43.95C160.167 43.95 160.669 44.1077 161.051 44.423C161.439 44.731 161.648 45.16 161.678 45.71H161.183C161.161 45.314 161.007 44.9913 160.721 44.742C160.435 44.4927 160.039 44.368 159.533 44.368C159.107 44.368 158.755 44.478 158.477 44.698C158.198 44.918 158.059 45.1857 158.059 45.501C158.059 45.7797 158.136 46.007 158.29 46.183C158.451 46.3517 158.645 46.4837 158.873 46.579C159.107 46.667 159.415 46.7623 159.797 46.865C160.215 46.975 160.548 47.085 160.798 47.195C161.054 47.2977 161.271 47.4517 161.447 47.657C161.623 47.855 161.711 48.1227 161.711 48.46C161.711 48.768 161.626 49.0467 161.458 49.296C161.289 49.5453 161.054 49.7397 160.754 49.879C160.453 50.0183 160.116 50.088 159.742 50.088Z"
        fill="white" fill-opacity="0.1" />
    <defs>
        <clipPath id="clip0_182_443">
            <rect width="58" height="58" fill="white" />
        </clipPath>
    </defs>
</svg>